<mxfile host="app.diagrams.net" modified="2024-03-26T13:21:19.984Z" agent="Mozilla/5.0 (Windows NT 10.0; Win64; x64) AppleWebKit/537.36 (KHTML, like Gecko) Chrome/120.0.0.0 Safari/537.36" etag="Fe3tmpVsXuKIQ97yr0VC" version="24.1.0" type="github">
  <diagram id="i7gGXflLBzXJQ1Onad0F" name="第 1 页">
    <mxGraphModel dx="2790" dy="1643" grid="0" gridSize="10" guides="1" tooltips="1" connect="1" arrows="1" fold="1" page="0" pageScale="1" pageWidth="827" pageHeight="1169" background="none" math="0" shadow="0">
      <root>
        <mxCell id="0" />
        <mxCell id="1" parent="0" />
        <mxCell id="0HR0Q5YfOQkqM-VOm0JT-1" style="edgeStyle=orthogonalEdgeStyle;rounded=0;orthogonalLoop=1;jettySize=auto;html=1;exitX=0.5;exitY=1;exitDx=0;exitDy=0;" parent="1" source="0HR0Q5YfOQkqM-VOm0JT-3" target="0HR0Q5YfOQkqM-VOm0JT-4" edge="1">
          <mxGeometry relative="1" as="geometry" />
        </mxCell>
        <mxCell id="0HR0Q5YfOQkqM-VOm0JT-2" style="edgeStyle=orthogonalEdgeStyle;rounded=0;orthogonalLoop=1;jettySize=auto;html=1;exitX=0.5;exitY=1;exitDx=0;exitDy=0;entryX=0;entryY=0.5;entryDx=0;entryDy=0;" parent="1" source="0HR0Q5YfOQkqM-VOm0JT-3" target="0HR0Q5YfOQkqM-VOm0JT-20" edge="1">
          <mxGeometry relative="1" as="geometry">
            <Array as="points">
              <mxPoint x="310" y="170" />
              <mxPoint x="390" y="170" />
              <mxPoint x="390" y="250" />
            </Array>
          </mxGeometry>
        </mxCell>
        <mxCell id="0HR0Q5YfOQkqM-VOm0JT-3" value="&lt;font style=&quot;font-size: 18px;&quot;&gt;SPPCSPC&lt;/font&gt;" style="rounded=1;whiteSpace=wrap;html=1;fillColor=#ffff88;strokeColor=#36393d;" parent="1" vertex="1">
          <mxGeometry x="250" y="120" width="120" height="40" as="geometry" />
        </mxCell>
        <mxCell id="0HR0Q5YfOQkqM-VOm0JT-4" value="&lt;font style=&quot;font-size: 18px;&quot;&gt;CBS&lt;/font&gt;" style="rounded=1;whiteSpace=wrap;html=1;fillColor=#dae8fc;strokeColor=#6c8ebf;" parent="1" vertex="1">
          <mxGeometry x="260" y="180" width="100" height="40" as="geometry" />
        </mxCell>
        <mxCell id="0HR0Q5YfOQkqM-VOm0JT-5" style="edgeStyle=orthogonalEdgeStyle;rounded=0;orthogonalLoop=1;jettySize=auto;html=1;exitX=0.5;exitY=1;exitDx=0;exitDy=0;entryX=0.5;entryY=0;entryDx=0;entryDy=0;" parent="1" source="0HR0Q5YfOQkqM-VOm0JT-6" target="0HR0Q5YfOQkqM-VOm0JT-8" edge="1">
          <mxGeometry relative="1" as="geometry" />
        </mxCell>
        <mxCell id="0HR0Q5YfOQkqM-VOm0JT-6" value="&lt;font style=&quot;font-size: 18px;&quot;&gt;UPSample&lt;/font&gt;" style="rounded=1;whiteSpace=wrap;html=1;fillColor=#99CCFF;" parent="1" vertex="1">
          <mxGeometry x="250" y="240" width="120" height="40" as="geometry" />
        </mxCell>
        <mxCell id="0HR0Q5YfOQkqM-VOm0JT-7" value="" style="edgeStyle=orthogonalEdgeStyle;rounded=0;orthogonalLoop=1;jettySize=auto;html=1;" parent="1" source="0HR0Q5YfOQkqM-VOm0JT-8" target="0HR0Q5YfOQkqM-VOm0JT-15" edge="1">
          <mxGeometry relative="1" as="geometry" />
        </mxCell>
        <mxCell id="0HR0Q5YfOQkqM-VOm0JT-8" value="&lt;font style=&quot;font-size: 18px;&quot;&gt;cat&lt;/font&gt;" style="ellipse;whiteSpace=wrap;html=1;rounded=1;fillColor=#fff2cc;strokeColor=#d6b656;" parent="1" vertex="1">
          <mxGeometry x="290" y="300" width="40" height="40" as="geometry" />
        </mxCell>
        <mxCell id="0HR0Q5YfOQkqM-VOm0JT-9" style="edgeStyle=orthogonalEdgeStyle;rounded=0;orthogonalLoop=1;jettySize=auto;html=1;exitX=1;exitY=0.5;exitDx=0;exitDy=0;" parent="1" source="0HR0Q5YfOQkqM-VOm0JT-10" target="0HR0Q5YfOQkqM-VOm0JT-8" edge="1">
          <mxGeometry relative="1" as="geometry" />
        </mxCell>
        <mxCell id="0HR0Q5YfOQkqM-VOm0JT-10" value="&lt;font style=&quot;font-size: 18px;&quot;&gt;CBS&lt;/font&gt;" style="rounded=1;whiteSpace=wrap;html=1;fillColor=#dae8fc;strokeColor=#6c8ebf;" parent="1" vertex="1">
          <mxGeometry x="160" y="300" width="100" height="40" as="geometry" />
        </mxCell>
        <mxCell id="0HR0Q5YfOQkqM-VOm0JT-11" value="&lt;font style=&quot;font-size: 18px;&quot;&gt;CBS&lt;/font&gt;" style="rounded=1;whiteSpace=wrap;html=1;fillColor=#dae8fc;strokeColor=#6c8ebf;arcSize=21;" parent="1" vertex="1">
          <mxGeometry x="160" y="540" width="100" height="40" as="geometry" />
        </mxCell>
        <mxCell id="0HR0Q5YfOQkqM-VOm0JT-12" value="" style="edgeStyle=orthogonalEdgeStyle;rounded=0;orthogonalLoop=1;jettySize=auto;html=1;entryX=0;entryY=0.5;entryDx=0;entryDy=0;" parent="1" source="0HR0Q5YfOQkqM-VOm0JT-13" target="0HR0Q5YfOQkqM-VOm0JT-50" edge="1">
          <mxGeometry relative="1" as="geometry">
            <mxPoint x="310.57142857142844" y="600" as="targetPoint" />
            <Array as="points">
              <mxPoint x="310" y="660" />
            </Array>
          </mxGeometry>
        </mxCell>
        <mxCell id="0HR0Q5YfOQkqM-VOm0JT-13" value="&lt;font style=&quot;font-size: 18px;&quot;&gt;cat&lt;/font&gt;" style="ellipse;whiteSpace=wrap;html=1;rounded=1;fillColor=#fff2cc;strokeColor=#d6b656;" parent="1" vertex="1">
          <mxGeometry x="290" y="540" width="40" height="40" as="geometry" />
        </mxCell>
        <mxCell id="0HR0Q5YfOQkqM-VOm0JT-14" style="edgeStyle=orthogonalEdgeStyle;rounded=0;orthogonalLoop=1;jettySize=auto;html=1;exitX=0.5;exitY=1;exitDx=0;exitDy=0;entryX=0;entryY=0.5;entryDx=0;entryDy=0;" parent="1" source="0HR0Q5YfOQkqM-VOm0JT-15" target="0HR0Q5YfOQkqM-VOm0JT-29" edge="1">
          <mxGeometry relative="1" as="geometry">
            <Array as="points">
              <mxPoint x="310" y="410" />
              <mxPoint x="390" y="410" />
              <mxPoint x="390" y="490" />
            </Array>
          </mxGeometry>
        </mxCell>
        <mxCell id="0HR0Q5YfOQkqM-VOm0JT-15" value="&lt;font style=&quot;font-size: 18px;&quot;&gt;ELAN-H&lt;/font&gt;" style="rounded=1;whiteSpace=wrap;html=1;fillColor=#cdeb8b;strokeColor=#36393d;" parent="1" vertex="1">
          <mxGeometry x="250" y="360" width="120" height="40" as="geometry" />
        </mxCell>
        <mxCell id="0HR0Q5YfOQkqM-VOm0JT-16" style="edgeStyle=orthogonalEdgeStyle;rounded=0;orthogonalLoop=1;jettySize=auto;html=1;exitX=0.5;exitY=1;exitDx=0;exitDy=0;entryX=0.5;entryY=0;entryDx=0;entryDy=0;" parent="1" source="0HR0Q5YfOQkqM-VOm0JT-15" target="0HR0Q5YfOQkqM-VOm0JT-51" edge="1">
          <mxGeometry relative="1" as="geometry">
            <mxPoint x="311" y="445" as="sourcePoint" />
          </mxGeometry>
        </mxCell>
        <mxCell id="0HR0Q5YfOQkqM-VOm0JT-17" style="edgeStyle=orthogonalEdgeStyle;rounded=0;orthogonalLoop=1;jettySize=auto;html=1;exitX=0.5;exitY=1;exitDx=0;exitDy=0;entryX=0.5;entryY=0;entryDx=0;entryDy=0;fontFamily=Tahoma;fontSize=6;" parent="1" source="0HR0Q5YfOQkqM-VOm0JT-18" target="0HR0Q5YfOQkqM-VOm0JT-13" edge="1">
          <mxGeometry relative="1" as="geometry" />
        </mxCell>
        <mxCell id="0HR0Q5YfOQkqM-VOm0JT-18" value="&lt;font style=&quot;font-size: 18px;&quot;&gt;UPsample&lt;/font&gt;" style="rounded=1;whiteSpace=wrap;html=1;fillColor=#99CCFF;" parent="1" vertex="1">
          <mxGeometry x="251.5" y="480" width="120" height="40" as="geometry" />
        </mxCell>
        <mxCell id="0HR0Q5YfOQkqM-VOm0JT-19" style="edgeStyle=orthogonalEdgeStyle;rounded=0;orthogonalLoop=1;jettySize=auto;html=1;exitX=0.5;exitY=0;exitDx=0;exitDy=0;entryX=0.5;entryY=1;entryDx=0;entryDy=0;" parent="1" source="0HR0Q5YfOQkqM-VOm0JT-20" target="0HR0Q5YfOQkqM-VOm0JT-30" edge="1">
          <mxGeometry relative="1" as="geometry" />
        </mxCell>
        <mxCell id="0HR0Q5YfOQkqM-VOm0JT-20" value="&lt;font style=&quot;font-size: 18px;&quot;&gt;cat&lt;/font&gt;" style="ellipse;whiteSpace=wrap;html=1;rounded=1;fillColor=#fff2cc;strokeColor=#d6b656;" parent="1" vertex="1">
          <mxGeometry x="467.50000000000006" y="230" width="40" height="40" as="geometry" />
        </mxCell>
        <mxCell id="0HR0Q5YfOQkqM-VOm0JT-21" value="" style="edgeStyle=orthogonalEdgeStyle;rounded=0;orthogonalLoop=1;jettySize=auto;html=1;entryX=0.5;entryY=1;entryDx=0;entryDy=0;" parent="1" source="0HR0Q5YfOQkqM-VOm0JT-22" target="0HR0Q5YfOQkqM-VOm0JT-20" edge="1">
          <mxGeometry relative="1" as="geometry">
            <mxPoint x="486" y="320" as="targetPoint" />
          </mxGeometry>
        </mxCell>
        <mxCell id="0HR0Q5YfOQkqM-VOm0JT-22" value="&lt;font style=&quot;font-size: 18px;&quot;&gt;MPTripleConv&lt;/font&gt;" style="whiteSpace=wrap;html=1;rounded=1;fillColor=#fad9d5;strokeColor=#ae4132;" parent="1" vertex="1">
          <mxGeometry x="427.5" y="310" width="120" height="40" as="geometry" />
        </mxCell>
        <mxCell id="0HR0Q5YfOQkqM-VOm0JT-23" value="" style="edgeStyle=orthogonalEdgeStyle;rounded=0;orthogonalLoop=1;jettySize=auto;html=1;" parent="1" source="0HR0Q5YfOQkqM-VOm0JT-25" target="0HR0Q5YfOQkqM-VOm0JT-22" edge="1">
          <mxGeometry relative="1" as="geometry" />
        </mxCell>
        <mxCell id="0HR0Q5YfOQkqM-VOm0JT-24" style="edgeStyle=orthogonalEdgeStyle;rounded=0;orthogonalLoop=1;jettySize=auto;html=1;exitX=1;exitY=0.5;exitDx=0;exitDy=0;entryX=0;entryY=0.5;entryDx=0;entryDy=0;" parent="1" source="0HR0Q5YfOQkqM-VOm0JT-25" target="0HR0Q5YfOQkqM-VOm0JT-33" edge="1">
          <mxGeometry relative="1" as="geometry" />
        </mxCell>
        <mxCell id="0HR0Q5YfOQkqM-VOm0JT-25" value="&lt;font style=&quot;font-size: 18px;&quot;&gt;ELAN-H&lt;/font&gt;" style="whiteSpace=wrap;html=1;rounded=1;fillColor=#cdeb8b;strokeColor=#36393d;" parent="1" vertex="1">
          <mxGeometry x="427.5" y="385" width="120" height="40" as="geometry" />
        </mxCell>
        <mxCell id="0HR0Q5YfOQkqM-VOm0JT-26" style="edgeStyle=orthogonalEdgeStyle;rounded=0;orthogonalLoop=1;jettySize=auto;html=1;exitX=0.5;exitY=0;exitDx=0;exitDy=0;entryX=0.5;entryY=1;entryDx=0;entryDy=0;" parent="1" source="0HR0Q5YfOQkqM-VOm0JT-27" target="0HR0Q5YfOQkqM-VOm0JT-29" edge="1">
          <mxGeometry relative="1" as="geometry" />
        </mxCell>
        <mxCell id="0HR0Q5YfOQkqM-VOm0JT-27" value="&lt;font style=&quot;font-size: 18px;&quot;&gt;MPTripleConv&lt;/font&gt;" style="whiteSpace=wrap;html=1;rounded=1;fillColor=#fad9d5;strokeColor=#ae4132;" parent="1" vertex="1">
          <mxGeometry x="427.5" y="550" width="120" height="40" as="geometry" />
        </mxCell>
        <mxCell id="0HR0Q5YfOQkqM-VOm0JT-28" value="" style="edgeStyle=orthogonalEdgeStyle;rounded=0;orthogonalLoop=1;jettySize=auto;html=1;" parent="1" source="0HR0Q5YfOQkqM-VOm0JT-29" target="0HR0Q5YfOQkqM-VOm0JT-25" edge="1">
          <mxGeometry relative="1" as="geometry" />
        </mxCell>
        <mxCell id="0HR0Q5YfOQkqM-VOm0JT-29" value="&lt;font style=&quot;font-size: 18px;&quot;&gt;cat&lt;/font&gt;" style="ellipse;whiteSpace=wrap;html=1;rounded=1;fillColor=#fff2cc;strokeColor=#d6b656;" parent="1" vertex="1">
          <mxGeometry x="467.5" y="470" width="40" height="40" as="geometry" />
        </mxCell>
        <mxCell id="0HR0Q5YfOQkqM-VOm0JT-30" value="&lt;font style=&quot;font-size: 18px;&quot;&gt;ELAN-H&lt;/font&gt;" style="rounded=1;whiteSpace=wrap;html=1;fillColor=#cdeb8b;strokeColor=#36393d;" parent="1" vertex="1">
          <mxGeometry x="427.5" y="130" width="120" height="40" as="geometry" />
        </mxCell>
        <mxCell id="0HR0Q5YfOQkqM-VOm0JT-31" style="edgeStyle=orthogonalEdgeStyle;rounded=0;orthogonalLoop=1;jettySize=auto;html=1;entryX=0;entryY=0.5;entryDx=0;entryDy=0;exitX=1;exitY=0.5;exitDx=0;exitDy=0;" parent="1" source="0HR0Q5YfOQkqM-VOm0JT-30" target="0HR0Q5YfOQkqM-VOm0JT-32" edge="1">
          <mxGeometry relative="1" as="geometry">
            <mxPoint x="538" y="140" as="sourcePoint" />
          </mxGeometry>
        </mxCell>
        <mxCell id="0HR0Q5YfOQkqM-VOm0JT-32" value="&lt;font style=&quot;font-size: 18px;&quot;&gt;REP&lt;/font&gt;" style="rounded=1;whiteSpace=wrap;html=1;fillColor=#fad7ac;strokeColor=#b46504;" parent="1" vertex="1">
          <mxGeometry x="600" y="135" width="60" height="30" as="geometry" />
        </mxCell>
        <mxCell id="0HR0Q5YfOQkqM-VOm0JT-33" value="&lt;font style=&quot;font-size: 18px;&quot;&gt;REP&lt;/font&gt;" style="rounded=1;whiteSpace=wrap;html=1;fillColor=#fad7ac;strokeColor=#b46504;" parent="1" vertex="1">
          <mxGeometry x="600" y="390" width="60" height="30" as="geometry" />
        </mxCell>
        <mxCell id="0HR0Q5YfOQkqM-VOm0JT-34" value="&lt;font style=&quot;font-size: 18px;&quot;&gt;REP&lt;/font&gt;" style="rounded=1;whiteSpace=wrap;html=1;fillColor=#fad7ac;strokeColor=#b46504;" parent="1" vertex="1">
          <mxGeometry x="597" y="645" width="60" height="30" as="geometry" />
        </mxCell>
        <mxCell id="0HR0Q5YfOQkqM-VOm0JT-35" value="" style="edgeStyle=orthogonalEdgeStyle;rounded=0;orthogonalLoop=1;jettySize=auto;html=1;exitX=1;exitY=0.5;exitDx=0;exitDy=0;" parent="1" source="0HR0Q5YfOQkqM-VOm0JT-32" target="0HR0Q5YfOQkqM-VOm0JT-38" edge="1">
          <mxGeometry relative="1" as="geometry">
            <mxPoint x="721" y="150.0000000000001" as="sourcePoint" />
          </mxGeometry>
        </mxCell>
        <mxCell id="0HR0Q5YfOQkqM-VOm0JT-36" value="" style="edgeStyle=orthogonalEdgeStyle;rounded=0;orthogonalLoop=1;jettySize=auto;html=1;exitX=1;exitY=0.5;exitDx=0;exitDy=0;" parent="1" source="0HR0Q5YfOQkqM-VOm0JT-33" target="0HR0Q5YfOQkqM-VOm0JT-39" edge="1">
          <mxGeometry relative="1" as="geometry">
            <mxPoint x="721" y="363.5" as="sourcePoint" />
          </mxGeometry>
        </mxCell>
        <mxCell id="0HR0Q5YfOQkqM-VOm0JT-37" value="" style="edgeStyle=orthogonalEdgeStyle;rounded=0;orthogonalLoop=1;jettySize=auto;html=1;exitX=1;exitY=0.5;exitDx=0;exitDy=0;" parent="1" source="0HR0Q5YfOQkqM-VOm0JT-34" target="0HR0Q5YfOQkqM-VOm0JT-40" edge="1">
          <mxGeometry relative="1" as="geometry">
            <mxPoint x="718" y="665" as="sourcePoint" />
          </mxGeometry>
        </mxCell>
        <mxCell id="0HR0Q5YfOQkqM-VOm0JT-38" value="" style="shape=cube;whiteSpace=wrap;html=1;boundedLbl=1;backgroundOutline=1;darkOpacity=0.05;darkOpacity2=0.1;size=10;fontStyle=1;fillColor=#f8cecc;strokeColor=#b85450;" parent="1" vertex="1">
          <mxGeometry x="751" y="125" width="50" height="50" as="geometry" />
        </mxCell>
        <mxCell id="0HR0Q5YfOQkqM-VOm0JT-39" value="" style="shape=cube;whiteSpace=wrap;html=1;boundedLbl=1;backgroundOutline=1;darkOpacity=0.05;darkOpacity2=0.1;size=10;fillColor=#d5e8d4;strokeColor=#82b366;" parent="1" vertex="1">
          <mxGeometry x="749" y="380" width="50" height="50" as="geometry" />
        </mxCell>
        <mxCell id="0HR0Q5YfOQkqM-VOm0JT-40" value="" style="shape=cube;whiteSpace=wrap;html=1;boundedLbl=1;backgroundOutline=1;darkOpacity=0.05;darkOpacity2=0.1;size=10;fillColor=#dae8fc;strokeColor=#6c8ebf;" parent="1" vertex="1">
          <mxGeometry x="749" y="635" width="50" height="50" as="geometry" />
        </mxCell>
        <mxCell id="0HR0Q5YfOQkqM-VOm0JT-41" value="&lt;font style=&quot;font-size: 14px;&quot;&gt;20*20*85&lt;/font&gt;" style="text;html=1;strokeColor=none;fillColor=none;align=center;verticalAlign=middle;whiteSpace=wrap;rounded=0;strokeWidth=1;fontSize=12;" parent="1" vertex="1">
          <mxGeometry x="746" y="170" width="56" height="30" as="geometry" />
        </mxCell>
        <mxCell id="0HR0Q5YfOQkqM-VOm0JT-42" value="&lt;font style=&quot;font-size: 14px;&quot;&gt;40*40*85&lt;/font&gt;" style="text;html=1;strokeColor=none;fillColor=none;align=center;verticalAlign=middle;whiteSpace=wrap;rounded=0;strokeWidth=1;fontSize=12;" parent="1" vertex="1">
          <mxGeometry x="751" y="430" width="56" height="30" as="geometry" />
        </mxCell>
        <mxCell id="0HR0Q5YfOQkqM-VOm0JT-43" value="&lt;font style=&quot;font-size: 14px;&quot;&gt;80*80*85&lt;/font&gt;" style="text;html=1;strokeColor=none;fillColor=none;align=center;verticalAlign=middle;whiteSpace=wrap;rounded=0;strokeWidth=1;fontSize=12;" parent="1" vertex="1">
          <mxGeometry x="752" y="689" width="56" height="30" as="geometry" />
        </mxCell>
        <mxCell id="0HR0Q5YfOQkqM-VOm0JT-44" style="edgeStyle=orthogonalEdgeStyle;rounded=0;orthogonalLoop=1;jettySize=auto;html=1;exitX=1;exitY=0.5;exitDx=0;exitDy=0;entryX=0;entryY=0.5;entryDx=0;entryDy=0;fontFamily=Tahoma;fontSize=6;" parent="1" source="0HR0Q5YfOQkqM-VOm0JT-11" target="0HR0Q5YfOQkqM-VOm0JT-13" edge="1">
          <mxGeometry relative="1" as="geometry">
            <mxPoint x="273.5" y="565" as="sourcePoint" />
          </mxGeometry>
        </mxCell>
        <mxCell id="0HR0Q5YfOQkqM-VOm0JT-45" style="edgeStyle=orthogonalEdgeStyle;rounded=0;orthogonalLoop=1;jettySize=auto;html=1;exitX=0.5;exitY=1;exitDx=0;exitDy=0;entryX=0.5;entryY=0;entryDx=0;entryDy=0;fontFamily=Tahoma;fontSize=6;" parent="1" source="0HR0Q5YfOQkqM-VOm0JT-51" target="0HR0Q5YfOQkqM-VOm0JT-18" edge="1">
          <mxGeometry relative="1" as="geometry">
            <mxPoint x="310" y="506" as="sourcePoint" />
          </mxGeometry>
        </mxCell>
        <mxCell id="0HR0Q5YfOQkqM-VOm0JT-46" style="edgeStyle=orthogonalEdgeStyle;rounded=0;orthogonalLoop=1;jettySize=auto;html=1;exitX=0.5;exitY=1;exitDx=0;exitDy=0;entryX=0.5;entryY=0;entryDx=0;entryDy=0;fontFamily=Tahoma;fontSize=6;" parent="1" source="0HR0Q5YfOQkqM-VOm0JT-4" target="0HR0Q5YfOQkqM-VOm0JT-6" edge="1">
          <mxGeometry relative="1" as="geometry">
            <mxPoint x="310" y="287" as="sourcePoint" />
          </mxGeometry>
        </mxCell>
        <mxCell id="0HR0Q5YfOQkqM-VOm0JT-47" style="edgeStyle=orthogonalEdgeStyle;rounded=0;orthogonalLoop=1;jettySize=auto;html=1;exitX=0.5;exitY=1;exitDx=0;exitDy=0;fontFamily=Tahoma;fontSize=6;" parent="1" edge="1">
          <mxGeometry relative="1" as="geometry">
            <mxPoint x="360" y="290.5" as="sourcePoint" />
            <mxPoint x="360" y="290.5" as="targetPoint" />
          </mxGeometry>
        </mxCell>
        <mxCell id="0HR0Q5YfOQkqM-VOm0JT-48" style="edgeStyle=orthogonalEdgeStyle;rounded=0;orthogonalLoop=1;jettySize=auto;html=1;exitX=1;exitY=0.5;exitDx=0;exitDy=0;entryX=0;entryY=0.5;entryDx=0;entryDy=0;" parent="1" source="0HR0Q5YfOQkqM-VOm0JT-50" target="0HR0Q5YfOQkqM-VOm0JT-34" edge="1">
          <mxGeometry relative="1" as="geometry" />
        </mxCell>
        <mxCell id="0HR0Q5YfOQkqM-VOm0JT-49" style="edgeStyle=orthogonalEdgeStyle;rounded=0;orthogonalLoop=1;jettySize=auto;html=1;exitX=0.5;exitY=0;exitDx=0;exitDy=0;entryX=0.5;entryY=1;entryDx=0;entryDy=0;" parent="1" source="0HR0Q5YfOQkqM-VOm0JT-50" target="0HR0Q5YfOQkqM-VOm0JT-27" edge="1">
          <mxGeometry relative="1" as="geometry" />
        </mxCell>
        <mxCell id="0HR0Q5YfOQkqM-VOm0JT-50" value="&lt;font style=&quot;font-size: 18px;&quot;&gt;ELAN-H&lt;/font&gt;" style="whiteSpace=wrap;html=1;rounded=1;fillColor=#cdeb8b;strokeColor=#36393d;" parent="1" vertex="1">
          <mxGeometry x="427.5" y="640" width="120" height="40" as="geometry" />
        </mxCell>
        <mxCell id="0HR0Q5YfOQkqM-VOm0JT-51" value="&lt;font style=&quot;font-size: 18px;&quot;&gt;CBS&lt;/font&gt;" style="rounded=1;whiteSpace=wrap;html=1;fillColor=#dae8fc;strokeColor=#6c8ebf;" parent="1" vertex="1">
          <mxGeometry x="250" y="417.5" width="120" height="40" as="geometry" />
        </mxCell>
        <mxCell id="0HR0Q5YfOQkqM-VOm0JT-52" value="" style="whiteSpace=wrap;html=1;aspect=fixed;fillColor=#dae8fc;strokeColor=#6c8ebf;" parent="1" vertex="1">
          <mxGeometry x="-165" y="92.5" width="50" height="50" as="geometry" />
        </mxCell>
        <mxCell id="0HR0Q5YfOQkqM-VOm0JT-53" value="" style="whiteSpace=wrap;html=1;aspect=fixed;fillColor=#d5e8d4;strokeColor=#82b366;" parent="1" vertex="1">
          <mxGeometry x="-175" y="102.5" width="50" height="50" as="geometry" />
        </mxCell>
        <mxCell id="0HR0Q5YfOQkqM-VOm0JT-54" style="edgeStyle=orthogonalEdgeStyle;rounded=0;orthogonalLoop=1;jettySize=auto;html=1;exitX=0.5;exitY=1;exitDx=0;exitDy=0;entryX=0.5;entryY=0;entryDx=0;entryDy=0;" parent="1" source="0HR0Q5YfOQkqM-VOm0JT-55" target="0HR0Q5YfOQkqM-VOm0JT-63" edge="1">
          <mxGeometry relative="1" as="geometry" />
        </mxCell>
        <mxCell id="0HR0Q5YfOQkqM-VOm0JT-55" value="" style="whiteSpace=wrap;html=1;aspect=fixed;fillColor=#f8cecc;strokeColor=#b85450;" parent="1" vertex="1">
          <mxGeometry x="-185" y="112.5" width="50" height="50" as="geometry" />
        </mxCell>
        <mxCell id="0HR0Q5YfOQkqM-VOm0JT-56" style="edgeStyle=orthogonalEdgeStyle;rounded=0;orthogonalLoop=1;jettySize=auto;html=1;exitX=0.5;exitY=1;exitDx=0;exitDy=0;" parent="1" source="0HR0Q5YfOQkqM-VOm0JT-57" target="0HR0Q5YfOQkqM-VOm0JT-65" edge="1">
          <mxGeometry relative="1" as="geometry" />
        </mxCell>
        <mxCell id="0HR0Q5YfOQkqM-VOm0JT-57" value="&lt;font style=&quot;font-size: 18px;&quot;&gt;TripleCBS&lt;/font&gt;" style="rounded=1;whiteSpace=wrap;html=1;fillColor=#dae8fc;strokeColor=#6c8ebf;" parent="1" vertex="1">
          <mxGeometry x="-220" y="412.51" width="120" height="39.99" as="geometry" />
        </mxCell>
        <mxCell id="0HR0Q5YfOQkqM-VOm0JT-58" style="edgeStyle=orthogonalEdgeStyle;rounded=0;orthogonalLoop=1;jettySize=auto;html=1;exitX=0.5;exitY=1;exitDx=0;exitDy=0;entryX=0.5;entryY=0;entryDx=0;entryDy=0;" parent="1" source="0HR0Q5YfOQkqM-VOm0JT-59" target="0HR0Q5YfOQkqM-VOm0JT-57" edge="1">
          <mxGeometry relative="1" as="geometry" />
        </mxCell>
        <mxCell id="0HR0Q5YfOQkqM-VOm0JT-59" value="&lt;font style=&quot;font-size: 18px;&quot;&gt;CBS&lt;/font&gt;" style="rounded=1;whiteSpace=wrap;html=1;fillColor=#dae8fc;strokeColor=#6c8ebf;" parent="1" vertex="1">
          <mxGeometry x="-220" y="335.5" width="120" height="37" as="geometry" />
        </mxCell>
        <mxCell id="0HR0Q5YfOQkqM-VOm0JT-60" style="edgeStyle=orthogonalEdgeStyle;rounded=0;orthogonalLoop=1;jettySize=auto;html=1;exitX=0.5;exitY=1;exitDx=0;exitDy=0;entryX=0.5;entryY=0;entryDx=0;entryDy=0;" parent="1" source="0HR0Q5YfOQkqM-VOm0JT-61" target="0HR0Q5YfOQkqM-VOm0JT-59" edge="1">
          <mxGeometry relative="1" as="geometry" />
        </mxCell>
        <mxCell id="0HR0Q5YfOQkqM-VOm0JT-61" value="&lt;font style=&quot;font-size: 18px;&quot;&gt;TripleCBS&lt;/font&gt;" style="rounded=1;whiteSpace=wrap;html=1;fillColor=#dae8fc;strokeColor=#6c8ebf;" parent="1" vertex="1">
          <mxGeometry x="-220" y="263.5" width="120" height="39" as="geometry" />
        </mxCell>
        <mxCell id="0HR0Q5YfOQkqM-VOm0JT-62" style="edgeStyle=orthogonalEdgeStyle;rounded=0;orthogonalLoop=1;jettySize=auto;html=1;exitX=0.5;exitY=1;exitDx=0;exitDy=0;entryX=0.5;entryY=0;entryDx=0;entryDy=0;" parent="1" source="0HR0Q5YfOQkqM-VOm0JT-63" target="0HR0Q5YfOQkqM-VOm0JT-61" edge="1">
          <mxGeometry relative="1" as="geometry" />
        </mxCell>
        <mxCell id="0HR0Q5YfOQkqM-VOm0JT-63" value="&lt;font style=&quot;font-size: 18px;&quot;&gt;CBS&lt;/font&gt;" style="rounded=1;whiteSpace=wrap;html=1;fillColor=#dae8fc;strokeColor=#6c8ebf;" parent="1" vertex="1">
          <mxGeometry x="-220" y="192.5" width="120" height="40" as="geometry" />
        </mxCell>
        <mxCell id="0HR0Q5YfOQkqM-VOm0JT-64" style="edgeStyle=orthogonalEdgeStyle;rounded=0;orthogonalLoop=1;jettySize=auto;html=1;exitX=0.5;exitY=1;exitDx=0;exitDy=0;entryX=0.5;entryY=1;entryDx=0;entryDy=0;" parent="1" source="0HR0Q5YfOQkqM-VOm0JT-65" target="0HR0Q5YfOQkqM-VOm0JT-67" edge="1">
          <mxGeometry relative="1" as="geometry">
            <Array as="points">
              <mxPoint x="-160" y="717.5" />
              <mxPoint x="36" y="717.5" />
            </Array>
          </mxGeometry>
        </mxCell>
        <mxCell id="0HR0Q5YfOQkqM-VOm0JT-65" value="&lt;font style=&quot;font-size: 18px;&quot;&gt;ELAN&lt;/font&gt;" style="rounded=1;whiteSpace=wrap;html=1;fillColor=#d5e8d4;strokeColor=#82b366;" parent="1" vertex="1">
          <mxGeometry x="-220" y="486" width="120" height="36.5" as="geometry" />
        </mxCell>
        <mxCell id="0HR0Q5YfOQkqM-VOm0JT-66" value="" style="edgeStyle=orthogonalEdgeStyle;rounded=0;orthogonalLoop=1;jettySize=auto;html=1;" parent="1" source="0HR0Q5YfOQkqM-VOm0JT-67" target="0HR0Q5YfOQkqM-VOm0JT-70" edge="1">
          <mxGeometry relative="1" as="geometry" />
        </mxCell>
        <mxCell id="0HR0Q5YfOQkqM-VOm0JT-67" value="&lt;font style=&quot;font-size: 18px;&quot;&gt;MPTripleConv&lt;/font&gt;" style="rounded=1;whiteSpace=wrap;html=1;fillColor=#fad9d5;strokeColor=#ae4132;" parent="1" vertex="1">
          <mxGeometry x="-24" y="646.5" width="120" height="40" as="geometry" />
        </mxCell>
        <mxCell id="0HR0Q5YfOQkqM-VOm0JT-68" value="" style="edgeStyle=orthogonalEdgeStyle;rounded=0;orthogonalLoop=1;jettySize=auto;html=1;fontSize=30;" parent="1" source="0HR0Q5YfOQkqM-VOm0JT-70" target="0HR0Q5YfOQkqM-VOm0JT-79" edge="1">
          <mxGeometry relative="1" as="geometry" />
        </mxCell>
        <mxCell id="0HR0Q5YfOQkqM-VOm0JT-69" style="edgeStyle=orthogonalEdgeStyle;rounded=0;orthogonalLoop=1;jettySize=auto;html=1;exitX=0.5;exitY=0;exitDx=0;exitDy=0;entryX=0;entryY=0.5;entryDx=0;entryDy=0;" parent="1" source="0HR0Q5YfOQkqM-VOm0JT-70" target="0HR0Q5YfOQkqM-VOm0JT-11" edge="1">
          <mxGeometry relative="1" as="geometry" />
        </mxCell>
        <mxCell id="0HR0Q5YfOQkqM-VOm0JT-70" value="&lt;font style=&quot;font-size: 18px;&quot;&gt;ELAN&lt;/font&gt;" style="rounded=1;whiteSpace=wrap;html=1;fillColor=#d5e8d4;strokeColor=#82b366;" parent="1" vertex="1">
          <mxGeometry x="-24" y="583.86" width="120" height="37.64" as="geometry" />
        </mxCell>
        <mxCell id="0HR0Q5YfOQkqM-VOm0JT-71" style="edgeStyle=orthogonalEdgeStyle;rounded=0;orthogonalLoop=1;jettySize=auto;html=1;exitX=0.5;exitY=0;exitDx=0;exitDy=0;entryX=0.5;entryY=1;entryDx=0;entryDy=0;" parent="1" source="0HR0Q5YfOQkqM-VOm0JT-73" target="0HR0Q5YfOQkqM-VOm0JT-75" edge="1">
          <mxGeometry relative="1" as="geometry" />
        </mxCell>
        <mxCell id="0HR0Q5YfOQkqM-VOm0JT-72" style="edgeStyle=orthogonalEdgeStyle;rounded=0;orthogonalLoop=1;jettySize=auto;html=1;exitX=0.5;exitY=0;exitDx=0;exitDy=0;entryX=0;entryY=0.5;entryDx=0;entryDy=0;" parent="1" source="0HR0Q5YfOQkqM-VOm0JT-73" target="0HR0Q5YfOQkqM-VOm0JT-10" edge="1">
          <mxGeometry relative="1" as="geometry" />
        </mxCell>
        <mxCell id="0HR0Q5YfOQkqM-VOm0JT-73" value="&lt;font style=&quot;font-size: 18px;&quot;&gt;ELAN&lt;/font&gt;" style="rounded=1;whiteSpace=wrap;html=1;fillColor=#d5e8d4;strokeColor=#82b366;" parent="1" vertex="1">
          <mxGeometry x="-24" y="365.5" width="120" height="40" as="geometry" />
        </mxCell>
        <mxCell id="0HR0Q5YfOQkqM-VOm0JT-74" style="edgeStyle=orthogonalEdgeStyle;rounded=0;orthogonalLoop=1;jettySize=auto;html=1;exitX=0.5;exitY=0;exitDx=0;exitDy=0;" parent="1" source="0HR0Q5YfOQkqM-VOm0JT-75" target="0HR0Q5YfOQkqM-VOm0JT-77" edge="1">
          <mxGeometry relative="1" as="geometry" />
        </mxCell>
        <mxCell id="0HR0Q5YfOQkqM-VOm0JT-75" value="&lt;font style=&quot;font-size: 18px;&quot;&gt;MPTripleConv&lt;/font&gt;" style="rounded=1;whiteSpace=wrap;html=1;fillColor=#fad9d5;strokeColor=#ae4132;" parent="1" vertex="1">
          <mxGeometry x="-24" y="247.5" width="120" height="40" as="geometry" />
        </mxCell>
        <mxCell id="0HR0Q5YfOQkqM-VOm0JT-76" style="edgeStyle=orthogonalEdgeStyle;rounded=0;orthogonalLoop=1;jettySize=auto;html=1;exitX=0.5;exitY=0;exitDx=0;exitDy=0;entryX=0.5;entryY=0;entryDx=0;entryDy=0;" parent="1" source="0HR0Q5YfOQkqM-VOm0JT-77" target="0HR0Q5YfOQkqM-VOm0JT-3" edge="1">
          <mxGeometry relative="1" as="geometry" />
        </mxCell>
        <mxCell id="0HR0Q5YfOQkqM-VOm0JT-77" value="&lt;font style=&quot;font-size: 18px;&quot;&gt;ELAN&lt;/font&gt;" style="rounded=1;whiteSpace=wrap;html=1;fillColor=#d5e8d4;strokeColor=#82b366;" parent="1" vertex="1">
          <mxGeometry x="-24" y="177.5" width="120" height="40" as="geometry" />
        </mxCell>
        <mxCell id="0HR0Q5YfOQkqM-VOm0JT-78" value="" style="edgeStyle=orthogonalEdgeStyle;rounded=0;orthogonalLoop=1;jettySize=auto;html=1;fontSize=30;" parent="1" source="0HR0Q5YfOQkqM-VOm0JT-79" target="0HR0Q5YfOQkqM-VOm0JT-73" edge="1">
          <mxGeometry relative="1" as="geometry" />
        </mxCell>
        <mxCell id="0HR0Q5YfOQkqM-VOm0JT-79" value="&lt;font style=&quot;font-size: 18px;&quot;&gt;MPTripleConv&lt;/font&gt;" style="rounded=1;whiteSpace=wrap;html=1;fillColor=#fad9d5;strokeColor=#ae4132;" parent="1" vertex="1">
          <mxGeometry x="-24" y="450.5" width="120" height="43.02" as="geometry" />
        </mxCell>
        <mxCell id="0HR0Q5YfOQkqM-VOm0JT-80" value="CBS" style="rounded=1;whiteSpace=wrap;html=1;fillColor=#dae8fc;strokeColor=#6c8ebf;fontSize=18;" parent="1" vertex="1">
          <mxGeometry x="827.25" y="377.5" width="100" height="40" as="geometry" />
        </mxCell>
        <mxCell id="0HR0Q5YfOQkqM-VOm0JT-81" value="CBS" style="rounded=1;whiteSpace=wrap;html=1;fillColor=#dae8fc;strokeColor=#6c8ebf;fontSize=18;" parent="1" vertex="1">
          <mxGeometry x="927.25" y="377.5" width="100" height="40" as="geometry" />
        </mxCell>
        <mxCell id="0HR0Q5YfOQkqM-VOm0JT-82" value="CBS" style="rounded=1;whiteSpace=wrap;html=1;fillColor=#dae8fc;strokeColor=#6c8ebf;fontSize=18;" parent="1" vertex="1">
          <mxGeometry x="1027.25" y="377.5" width="100" height="40" as="geometry" />
        </mxCell>
        <mxCell id="0HR0Q5YfOQkqM-VOm0JT-83" value="Conv" style="rounded=1;whiteSpace=wrap;html=1;fillColor=#dae8fc;strokeColor=#6c8ebf;fontSize=18;" parent="1" vertex="1">
          <mxGeometry x="1180" y="377.5" width="100" height="40" as="geometry" />
        </mxCell>
        <mxCell id="0HR0Q5YfOQkqM-VOm0JT-84" value="BatchNorm" style="rounded=1;whiteSpace=wrap;html=1;fillColor=#ffe6cc;strokeColor=#d79b00;fontSize=18;" parent="1" vertex="1">
          <mxGeometry x="1280" y="377.5" width="120" height="40" as="geometry" />
        </mxCell>
        <mxCell id="0HR0Q5YfOQkqM-VOm0JT-85" value="SiLU" style="rounded=1;whiteSpace=wrap;html=1;fillColor=#b0e3e6;strokeColor=#0e8088;fontSize=18;" parent="1" vertex="1">
          <mxGeometry x="1400" y="377.5" width="60" height="40" as="geometry" />
        </mxCell>
        <mxCell id="0HR0Q5YfOQkqM-VOm0JT-104" value="MPConv" style="rounded=1;whiteSpace=wrap;html=1;" parent="1" vertex="1">
          <mxGeometry x="838.88" y="238" width="50" height="20" as="geometry" />
        </mxCell>
        <mxCell id="0HR0Q5YfOQkqM-VOm0JT-105" value="CBS" style="rounded=1;whiteSpace=wrap;html=1;fillColor=#dae8fc;strokeColor=#6c8ebf;fontSize=18;" parent="1" vertex="1">
          <mxGeometry x="998.88" y="280" width="100" height="40" as="geometry" />
        </mxCell>
        <mxCell id="0HR0Q5YfOQkqM-VOm0JT-106" value="Maxpooling_3" style="rounded=1;whiteSpace=wrap;html=1;fillColor=#bac8d3;strokeColor=#23445d;fontSize=18;" parent="1" vertex="1">
          <mxGeometry x="1008.88" y="192.5" width="120" height="40" as="geometry" />
        </mxCell>
        <mxCell id="0HR0Q5YfOQkqM-VOm0JT-107" style="edgeStyle=orthogonalEdgeStyle;rounded=0;orthogonalLoop=1;jettySize=auto;html=1;exitX=1;exitY=0.5;exitDx=0;exitDy=0;entryX=0.5;entryY=1;entryDx=0;entryDy=0;" parent="1" source="0HR0Q5YfOQkqM-VOm0JT-108" target="0HR0Q5YfOQkqM-VOm0JT-125" edge="1">
          <mxGeometry relative="1" as="geometry">
            <mxPoint x="1276.8799999999997" y="273" as="targetPoint" />
          </mxGeometry>
        </mxCell>
        <mxCell id="0HR0Q5YfOQkqM-VOm0JT-108" value="TripleCBS" style="rounded=1;whiteSpace=wrap;html=1;fillColor=#dae8fc;strokeColor=#6c8ebf;fontSize=18;" parent="1" vertex="1">
          <mxGeometry x="1098.88" y="280" width="122.75" height="40" as="geometry" />
        </mxCell>
        <mxCell id="0HR0Q5YfOQkqM-VOm0JT-109" style="edgeStyle=orthogonalEdgeStyle;rounded=0;orthogonalLoop=1;jettySize=auto;html=1;exitX=1;exitY=0.5;exitDx=0;exitDy=0;entryX=0.5;entryY=0;entryDx=0;entryDy=0;" parent="1" source="0HR0Q5YfOQkqM-VOm0JT-110" target="0HR0Q5YfOQkqM-VOm0JT-125" edge="1">
          <mxGeometry relative="1" as="geometry">
            <mxPoint x="1276.8799999999997" y="243" as="targetPoint" />
          </mxGeometry>
        </mxCell>
        <mxCell id="0HR0Q5YfOQkqM-VOm0JT-110" value="CBS" style="rounded=1;whiteSpace=wrap;html=1;fillColor=#dae8fc;strokeColor=#6c8ebf;fontSize=18;" parent="1" vertex="1">
          <mxGeometry x="1128.88" y="193" width="100" height="40" as="geometry" />
        </mxCell>
        <mxCell id="0HR0Q5YfOQkqM-VOm0JT-113" value="=" style="text;html=1;strokeColor=none;fillColor=none;align=center;verticalAlign=middle;whiteSpace=wrap;rounded=0;strokeWidth=1;fontSize=30;" parent="1" vertex="1">
          <mxGeometry x="1140" y="382.51" width="27" height="30" as="geometry" />
        </mxCell>
        <mxCell id="0HR0Q5YfOQkqM-VOm0JT-122" value="=" style="text;html=1;strokeColor=none;fillColor=none;align=center;verticalAlign=middle;whiteSpace=wrap;rounded=0;strokeWidth=1;fontSize=30;" parent="1" vertex="1">
          <mxGeometry x="888.88" y="233" width="27" height="30" as="geometry" />
        </mxCell>
        <mxCell id="0HR0Q5YfOQkqM-VOm0JT-125" value="cat" style="ellipse;whiteSpace=wrap;html=1;rounded=1;fillColor=#fff2cc;strokeColor=#d6b656;fontSize=18;" parent="1" vertex="1">
          <mxGeometry x="1275.88" y="238" width="40" height="40" as="geometry" />
        </mxCell>
        <mxCell id="0HR0Q5YfOQkqM-VOm0JT-200" style="edgeStyle=orthogonalEdgeStyle;rounded=0;orthogonalLoop=1;jettySize=auto;html=1;exitX=1;exitY=0.5;exitDx=0;exitDy=0;entryX=0;entryY=0.5;entryDx=0;entryDy=0;" parent="1" source="0HR0Q5YfOQkqM-VOm0JT-128" target="0HR0Q5YfOQkqM-VOm0JT-106" edge="1">
          <mxGeometry relative="1" as="geometry">
            <Array as="points">
              <mxPoint x="981.88" y="257.5" />
              <mxPoint x="981.88" y="212.5" />
            </Array>
          </mxGeometry>
        </mxCell>
        <mxCell id="0HR0Q5YfOQkqM-VOm0JT-202" style="edgeStyle=orthogonalEdgeStyle;rounded=0;orthogonalLoop=1;jettySize=auto;html=1;exitX=1;exitY=0.5;exitDx=0;exitDy=0;entryX=0;entryY=0.5;entryDx=0;entryDy=0;" parent="1" source="0HR0Q5YfOQkqM-VOm0JT-128" target="0HR0Q5YfOQkqM-VOm0JT-105" edge="1">
          <mxGeometry relative="1" as="geometry">
            <Array as="points">
              <mxPoint x="981.88" y="257.5" />
              <mxPoint x="981.88" y="300.5" />
            </Array>
          </mxGeometry>
        </mxCell>
        <mxCell id="0HR0Q5YfOQkqM-VOm0JT-128" value="&lt;font style=&quot;font-size: 18px;&quot;&gt;MPTripleConv&lt;/font&gt;" style="rounded=1;whiteSpace=wrap;html=1;fillColor=#fad9d5;strokeColor=#ae4132;" parent="1" vertex="1">
          <mxGeometry x="838.63" y="237.5" width="120" height="40" as="geometry" />
        </mxCell>
        <mxCell id="0HR0Q5YfOQkqM-VOm0JT-130" value="（1,1）" style="text;html=1;strokeColor=none;fillColor=none;align=center;verticalAlign=middle;whiteSpace=wrap;rounded=0;strokeWidth=1;fontSize=18;" parent="1" vertex="1">
          <mxGeometry x="857.75" y="430" width="39" height="30" as="geometry" />
        </mxCell>
        <mxCell id="0HR0Q5YfOQkqM-VOm0JT-131" value="（3,1）" style="text;html=1;strokeColor=none;fillColor=none;align=center;verticalAlign=middle;whiteSpace=wrap;rounded=0;strokeWidth=1;fontSize=18;" parent="1" vertex="1">
          <mxGeometry x="957.75" y="427.5" width="39" height="30" as="geometry" />
        </mxCell>
        <mxCell id="0HR0Q5YfOQkqM-VOm0JT-132" value="（3,2）" style="text;html=1;strokeColor=none;fillColor=none;align=center;verticalAlign=middle;whiteSpace=wrap;rounded=0;strokeWidth=1;fontSize=18;" parent="1" vertex="1">
          <mxGeometry x="1057.75" y="430" width="39" height="30" as="geometry" />
        </mxCell>
        <mxCell id="uCAcjx-sVtzNNtZDM9V3-1" value="" style="rounded=1;whiteSpace=wrap;html=1;strokeWidth=15;perimeterSpacing=0;strokeColor=#d6b656;fillColor=#fff2cc;opacity=30;shadow=0;glass=0;" vertex="1" parent="1">
          <mxGeometry x="-44" y="626.5" width="160" height="80" as="geometry" />
        </mxCell>
        <mxCell id="uCAcjx-sVtzNNtZDM9V3-2" value="" style="rounded=1;whiteSpace=wrap;html=1;strokeWidth=15;perimeterSpacing=0;strokeColor=#9673a6;fillColor=#e1d5e7;opacity=30;shadow=0;glass=0;" vertex="1" parent="1">
          <mxGeometry x="-240" y="392.5" width="160" height="80" as="geometry" />
        </mxCell>
        <mxCell id="uCAcjx-sVtzNNtZDM9V3-3" value="" style="rounded=1;whiteSpace=wrap;html=1;strokeWidth=15;perimeterSpacing=0;strokeColor=#9673a6;fillColor=#e1d5e7;opacity=30;shadow=0;glass=0;" vertex="1" parent="1">
          <mxGeometry x="-240" y="243" width="160" height="80" as="geometry" />
        </mxCell>
        <mxCell id="uCAcjx-sVtzNNtZDM9V3-4" value="" style="rounded=1;whiteSpace=wrap;html=1;strokeWidth=15;perimeterSpacing=0;strokeColor=#d6b656;fillColor=#fff2cc;opacity=30;shadow=0;glass=0;" vertex="1" parent="1">
          <mxGeometry x="-44" y="432.01" width="160" height="80" as="geometry" />
        </mxCell>
        <mxCell id="uCAcjx-sVtzNNtZDM9V3-5" value="" style="rounded=1;whiteSpace=wrap;html=1;strokeWidth=15;perimeterSpacing=0;strokeColor=#d6b656;fillColor=#fff2cc;opacity=30;shadow=0;glass=0;" vertex="1" parent="1">
          <mxGeometry x="-44" y="227.5" width="160" height="80" as="geometry" />
        </mxCell>
        <mxCell id="uCAcjx-sVtzNNtZDM9V3-6" value="" style="rounded=1;whiteSpace=wrap;html=1;strokeWidth=15;perimeterSpacing=0;strokeColor=#d6b656;fillColor=#fff2cc;opacity=30;shadow=0;glass=0;" vertex="1" parent="1">
          <mxGeometry x="407.5" y="292.5" width="160" height="80" as="geometry" />
        </mxCell>
        <mxCell id="uCAcjx-sVtzNNtZDM9V3-7" value="" style="rounded=1;whiteSpace=wrap;html=1;strokeWidth=15;perimeterSpacing=0;strokeColor=#d6b656;fillColor=#fff2cc;opacity=30;shadow=0;glass=0;" vertex="1" parent="1">
          <mxGeometry x="407.5" y="530" width="160" height="80" as="geometry" />
        </mxCell>
        <mxCell id="uCAcjx-sVtzNNtZDM9V3-8" value="" style="rounded=0;whiteSpace=wrap;html=1;fillColor=#e1d5e7;strokeColor=#9673a6;" vertex="1" parent="1">
          <mxGeometry x="602" y="-17" width="40" height="40" as="geometry" />
        </mxCell>
        <mxCell id="uCAcjx-sVtzNNtZDM9V3-9" value="" style="rounded=0;whiteSpace=wrap;html=1;fillColor=#fff2cc;strokeColor=#d6b656;" vertex="1" parent="1">
          <mxGeometry x="602" y="43" width="40" height="40" as="geometry" />
        </mxCell>
        <mxCell id="uCAcjx-sVtzNNtZDM9V3-10" value="&lt;font style=&quot;font-size: 24px;&quot;&gt;TripleBCS&lt;/font&gt;" style="text;html=1;align=center;verticalAlign=middle;whiteSpace=wrap;rounded=0;" vertex="1" parent="1">
          <mxGeometry x="658" y="-12" width="135" height="30" as="geometry" />
        </mxCell>
        <mxCell id="uCAcjx-sVtzNNtZDM9V3-11" value="&lt;span style=&quot;font-size: 24px;&quot;&gt;MPTripleConv&lt;/span&gt;" style="text;html=1;align=center;verticalAlign=middle;whiteSpace=wrap;rounded=0;" vertex="1" parent="1">
          <mxGeometry x="651" y="48" width="157" height="30" as="geometry" />
        </mxCell>
      </root>
    </mxGraphModel>
  </diagram>
</mxfile>
